<svg width="104" height="105" viewBox="0 0 104 105" fill="none" xmlns="http://www.w3.org/2000/svg">
<ellipse cx="51.941" cy="52.3643" rx="51.816" ry="52.2396" fill="#00B074" fill-opacity="0.15"/>
<path d="M23.0527 79.129C26.9454 79.129 30.1259 75.9185 30.1259 71.9892V25.9877H71.4256V71.9892C71.4256 75.9185 68.2451 79.129 64.3525 79.129" fill="#00B074"/>
<path d="M57.2782 71.989V66.5742H15.9785V71.989C15.9785 75.9183 19.1591 79.1288 23.0517 79.1288H64.3514C60.4588 79.1288 57.2782 75.9183 57.2782 71.989Z" fill="#0A5239"/>
<path d="M42.7995 35.1399H37.5303V37.44H42.7995V35.1399Z" fill="#F7C604"/>
<path d="M63.0694 35.1399H46.8818V37.44H63.0694V35.1399Z" fill="#F3F2F7"/>
<path d="M42.7995 43.286H37.5303V45.5861H42.7995V43.286Z" fill="#F7C604"/>
<path d="M63.0694 43.2861H46.8818V45.5862H63.0694V43.2861Z" fill="#F3F2F7"/>
<path d="M42.7995 51.4323H37.5303V53.7323H42.7995V51.4323Z" fill="#F7C604"/>
<path d="M63.0694 51.4324H46.8818V53.7325H63.0694V51.4324Z" fill="#F3F2F7"/>
<path d="M42.7995 59.5785H37.5303V61.8786H42.7995V59.5785Z" fill="#F7C604"/>
<path d="M63.0694 59.5786H46.8818V61.8787H63.0694V59.5786Z" fill="#F3F2F7"/>
<path opacity="0.1" d="M71.4248 59.9619V32.6005C70.8551 32.5047 70.238 32.4568 69.6208 32.4568C62.073 32.4568 55.9492 38.6382 55.9492 46.2573C55.9492 53.8763 62.073 60.0577 69.6208 60.0577C70.238 60.1056 70.8551 60.0577 71.4248 59.9619Z" fill="#0C1E5B"/>
<path d="M74.4169 57.3266C81.9676 57.3266 88.0887 51.1478 88.0887 43.526C88.0887 35.9041 81.9676 29.7253 74.4169 29.7253C66.8662 29.7253 60.7451 35.9041 60.7451 43.526C60.7451 51.1478 66.8662 57.3266 74.4169 57.3266Z" fill="#FF5B5B"/>
<path d="M79.7834 37.8979L68.623 49.1496M68.623 37.8979L79.7834 49.1496" stroke="white" stroke-width="4.91667"/>
<path d="M79.7834 37.8979L68.623 49.1496M68.623 37.8979L79.7834 49.1496" stroke="white" stroke-width="4.91667"/>
</svg>
