<svg width="104" height="105" viewBox="0 0 104 105" fill="none" xmlns="http://www.w3.org/2000/svg">
<ellipse cx="51.941" cy="52.3643" rx="51.816" ry="52.2396" fill="#00B074" fill-opacity="0.15"/>
<path d="M51.3986 29.566C50.6689 29.566 50.0955 28.988 50.0955 28.2522V24.9413C50.0955 21.3676 47.2284 18.4772 43.7359 18.4772C42.0157 18.4772 40.4518 19.1604 39.2008 20.3691C37.9497 21.5779 37.3242 23.207 37.3242 24.9413V28.2522C37.3242 28.988 36.7508 29.566 36.021 29.566C35.2912 29.566 34.7178 28.988 34.7178 28.2522V24.9413C34.7178 22.5238 35.6561 20.264 37.3242 18.5297C39.0444 16.7955 41.2859 15.8495 43.6837 15.8495C48.6359 15.8495 52.6497 19.8961 52.6497 24.8888V28.1996C52.7018 28.988 52.1284 29.566 51.3986 29.566Z" fill="#FFD497"/>
<path d="M71.8857 73.8691H33.8846L27.5771 24.7838H69.2272L71.8857 73.8691Z" fill="#00B074"/>
<path d="M33.8833 73.8691L24.8652 72.2925L15.7949 73.8691L18.5056 24.7838H31.1726L33.8833 73.8691Z" fill="#0A5239"/>
<path d="M50.4074 41.7058C45.4552 41.7058 41.4414 37.6592 41.4414 32.6666V29.3557C41.4414 28.6199 42.0148 28.0418 42.7446 28.0418C43.4744 28.0418 44.0478 28.6199 44.0478 29.3557V32.6666C44.0478 36.2402 46.9148 39.0781 50.4074 39.0781C53.8999 39.0781 56.8191 36.1877 56.8191 32.614V29.3031C56.8191 28.5674 57.3925 27.9893 58.1223 27.9893C58.8521 27.9893 59.4255 28.5674 59.4255 29.3031V32.614C59.4255 37.6592 55.4116 41.7058 50.4074 41.7058Z" fill="white"/>
<path opacity="0.1" d="M52.7539 67.142C52.7539 69.5595 53.3794 71.8719 54.4741 73.8689H71.9369L70.8422 53.6883C69.539 53.2678 68.1837 53.0576 66.7762 53.0576C59.0092 53.0576 52.7539 59.3641 52.7539 67.142Z" fill="#0C1E5B"/>
<path d="M74.022 81.2265C81.7375 81.2265 87.9922 74.9207 87.9922 67.1421C87.9922 59.3634 81.7375 53.0576 74.022 53.0576C66.3064 53.0576 60.0518 59.3634 60.0518 67.1421C60.0518 74.9207 66.3064 81.2265 74.022 81.2265Z" fill="#FF6966"/>
<path d="M72.5621 72.6078C72.1451 72.6078 71.7802 72.4501 71.4674 72.1348L67.0365 67.6677C66.411 67.0371 66.411 66.0385 67.0365 65.4604C67.6621 64.8298 68.6525 64.8298 69.2259 65.4604L72.5621 68.8239L78.8174 62.5174C79.443 61.8868 80.4334 61.8868 81.0068 62.5174C81.6323 63.1481 81.6323 64.1466 81.0068 64.7247L73.6568 72.1348C73.344 72.4501 72.927 72.6078 72.5621 72.6078Z" fill="white"/>
</svg>
