<svg width="104" height="105" viewBox="0 0 104 105" fill="none" xmlns="http://www.w3.org/2000/svg">
<ellipse cx="51.941" cy="52.3644" rx="51.816" ry="52.2396" fill="#00B074" fill-opacity="0.15"/>
<path d="M23.0508 79.129C26.9434 79.129 30.124 75.9184 30.124 71.9891V25.9876H71.4237V71.9891C71.4237 75.9184 68.2431 79.129 64.3505 79.129" fill="#00B074"/>
<path d="M57.2782 71.9889V66.5741H15.9785V71.9889C15.9785 75.9182 19.1591 79.1287 23.0517 79.1287H64.3514C60.4588 79.1287 57.2782 75.9182 57.2782 71.9889Z" fill="#0A5239"/>
<path d="M42.7995 35.1398H37.5303V37.4399H42.7995V35.1398Z" fill="white"/>
<path d="M63.0694 35.1398H46.8818V37.4399H63.0694V35.1398Z" fill="#F7C604"/>
<path d="M42.7995 43.2859H37.5303V45.586H42.7995V43.2859Z" fill="white"/>
<path d="M63.0694 43.2859H46.8818V45.586H63.0694V43.2859Z" fill="#F7C604"/>
<path d="M42.7995 51.4322H37.5303V53.7322H42.7995V51.4322Z" fill="white"/>
<path d="M63.0694 51.4322H46.8818V53.7322H63.0694V51.4322Z" fill="#F7C604"/>
<path d="M42.7995 59.5784H37.5303V61.8785H42.7995V59.5784Z" fill="white"/>
<path d="M63.0694 59.5784H46.8818V61.8785H63.0694V59.5784Z" fill="#F7C604"/>
<path opacity="0.1" d="M71.4248 59.9618V32.6005C70.8551 32.5046 70.238 32.4567 69.6208 32.4567C62.073 32.4567 55.9492 38.6382 55.9492 46.2572C55.9492 53.8762 62.073 60.0576 69.6208 60.0576C70.238 60.1055 70.8551 60.0576 71.4248 59.9618Z" fill="#0C1E5B"/>
<path d="M74.4159 57.3265C81.9666 57.3265 88.0877 51.1477 88.0877 43.5259C88.0877 35.904 81.9666 29.7253 74.4159 29.7253C66.8652 29.7253 60.7441 35.904 60.7441 43.5259C60.7441 51.1477 66.8652 57.3265 74.4159 57.3265Z" fill="#FF5B5B"/>
<path d="M76.8367 44.4839V35.9065H71.9946V44.4839H68.7666L74.4156 51.1445L80.0647 44.4839H76.8367Z" fill="white"/>
</svg>
